<svg width="56" height="65" viewBox="0 0 56 65" fill="none" xmlns="http://www.w3.org/2000/svg">
<path d="M27.6845 15.221C27.2766 15.0751 26.8378 14.9839 26.4661 14.774C24.5107 13.6699 22.5647 12.5486 20.6305 11.4077C19.3645 10.661 18.1267 10.6499 16.8596 11.3915C15.0236 12.4662 13.1826 13.5326 11.3339 14.5851C10.0027 15.3431 9.37587 16.4473 9.38356 17.9985C9.41154 23.6428 9.41185 29.2874 9.38322 34.9317C9.37532 36.4887 10.0317 37.5757 11.3498 38.3382C18.8182 42.6584 26.2777 46.9938 33.7512 51.3052C35.9074 52.5491 37.7127 54.0968 38.6005 56.5049C39.9413 60.1419 37.7086 64.1848 34.0095 64.8043C33.551 64.8811 33.0622 64.8862 32.6016 64.8224C30.8786 64.5834 31.043 64.5201 31.1712 63.0934C31.2921 61.7472 30.5598 60.6884 29.5188 59.93C28.3999 59.1149 27.2095 58.3896 26.01 57.6945C17.9572 53.028 9.89258 48.3818 1.83485 43.7237C0.635908 43.0306 0.0435872 41.9938 0.0431638 40.5861C0.0403436 31.2187 0.0285863 21.8513 2.55518e-05 12.484C-0.00446561 11.0111 0.58298 9.92928 1.85049 9.19741C6.86565 6.30166 11.8774 3.39994 16.895 0.508547C18.0976 -0.184418 19.3174 -0.159522 20.5202 0.524165C22.4982 1.6485 24.4707 2.78242 26.4501 3.90433C26.8087 4.10758 27.1889 4.2727 27.55 4.51912C27.5871 4.98192 27.672 5.38087 27.6736 5.78015C27.6862 8.92707 27.6829 12.0741 27.6845 15.221Z" fill="#6B2B7A"/>
<path d="M36.3632 10.9398C35.8425 11.2068 35.3217 11.4738 34.6786 11.7421C34.4502 11.8426 34.3441 11.9419 34.2379 12.0411C34.0083 12.1778 33.7787 12.3144 33.4295 12.4515C33.2056 12.5537 33.1013 12.6554 32.997 12.7571C32.8791 12.8313 32.7612 12.9056 32.5251 12.9804C32.1896 13.1389 31.9722 13.2969 31.7548 13.4549C31.6369 13.5325 31.5189 13.61 31.2818 13.6888C30.9466 13.8524 30.7305 14.0148 30.5145 14.1773C30.3963 14.2516 30.2782 14.326 30.0468 14.4C29.8312 14.4974 29.7289 14.5951 29.6265 14.6928C29.4651 14.784 29.3037 14.8753 29.0236 14.954C28.7905 15.0296 28.676 15.1177 28.5615 15.2058C28.4149 15.2217 28.2684 15.2375 28.0873 15.1937C28.0527 15.1341 28.0951 15.0844 28.1462 15.0424C28.2608 14.7833 28.3787 14.5665 28.3796 14.3492C28.3918 11.3878 28.3937 8.42637 28.376 5.46506C28.3747 5.24641 28.2032 5.02877 28.0887 4.74818C28.0586 4.64221 28.0507 4.59873 28.0429 4.55524C28.2667 4.50594 28.4906 4.45664 28.8427 4.41828C29.3098 4.20828 29.6486 3.98736 29.9875 3.76643C29.9875 3.76643 30.0401 3.72292 30.1414 3.72451C30.571 3.4994 30.8994 3.2727 31.2278 3.04601C31.2278 3.04601 31.2737 3.00466 31.3647 3.00973C31.5582 2.91893 31.6606 2.82306 31.7631 2.72719C31.9934 2.58729 32.2238 2.44739 32.5721 2.30556C32.7948 2.20824 32.8995 2.11286 33.0042 2.01748C33.2352 1.87797 33.4662 1.73846 33.8153 1.59668C34.0374 1.49782 34.1414 1.40124 34.2454 1.30466C34.4741 1.16571 34.7028 1.02675 35.0494 0.885682C35.2738 0.788866 35.3803 0.694162 35.4868 0.599458C35.5389 0.567919 35.5909 0.53638 35.7582 0.514362C36.1589 0.383613 36.4445 0.243343 36.73 0.103071C37.091 0.0827617 37.452 0.0624517 37.9074 0.127846C38.1994 0.251217 38.3969 0.288884 38.5944 0.326551C38.7884 0.402257 38.9824 0.477961 39.2064 0.635456C39.2858 0.715887 39.3352 0.714529 39.3847 0.713171C39.7084 0.882377 40.0322 1.05158 40.414 1.32173C40.6101 1.47398 40.7482 1.52529 40.8863 1.5766C41.0101 1.63315 41.1339 1.68971 41.3058 1.84233C41.6059 2.05665 41.8577 2.17491 42.1095 2.29317C42.2382 2.35008 42.367 2.407 42.5471 2.55991C42.7355 2.71056 42.8725 2.76522 43.0095 2.81987C43.1349 2.87397 43.2603 2.92807 43.4337 3.07927C43.7366 3.29454 43.9916 3.41271 44.2467 3.53087C44.3731 3.58463 44.4995 3.63839 44.6743 3.78895C44.9764 4.00454 45.2301 4.12332 45.4838 4.2421C45.6111 4.29647 45.7385 4.35085 45.9159 4.50107C46.1021 4.65531 46.2383 4.7137 46.3745 4.77209C46.5059 4.81922 46.6374 4.86635 46.8091 5.02002C47.1066 5.24417 47.364 5.36178 47.6213 5.4794C48.1547 5.76801 48.6881 6.05663 49.2791 6.44731C49.4764 6.60552 49.616 6.66166 49.7556 6.7178C49.9934 6.83415 50.2312 6.95049 50.5234 7.16506C50.7146 7.31923 50.8514 7.37516 50.9882 7.4311C51.2284 7.54781 51.4686 7.66452 51.7641 7.87879C51.9551 8.03152 52.0908 8.08668 52.2266 8.14185C52.353 8.1978 52.4794 8.25374 52.6549 8.40653C52.9588 8.61932 53.2135 8.73528 53.4683 8.85124C53.5944 8.91019 53.7206 8.96915 53.8979 9.12431C54.0874 9.27343 54.2257 9.32634 54.3641 9.37926C54.6946 9.68013 55.0252 9.98101 55.3609 10.4071C55.5493 10.9308 55.7325 11.3292 55.9157 11.7276C55.945 11.8703 56 12.013 56 12.1557C55.9979 18.164 55.991 24.1722 55.9059 30.2828C55.74 30.6986 55.6527 31.0122 55.5655 31.3257C55.5578 31.3857 55.55 31.4457 55.4543 31.5511C55.2497 31.7892 55.1332 31.9818 55.0166 32.1744C54.9369 32.269 54.8572 32.3637 54.6742 32.4725C54.4728 32.5878 54.3748 32.6891 54.2767 32.7903C54.2256 32.82 54.1745 32.8498 54.0116 32.8664C53.7902 32.9615 53.6807 33.0697 53.5712 33.1778C53.2835 33.3617 52.9958 33.5456 52.5835 33.7307C52.2374 33.8922 52.016 34.0524 51.7946 34.2127C51.7946 34.2127 51.7454 34.2596 51.6466 34.2592C51.3343 34.4195 51.1208 34.5802 50.9073 34.741C50.7883 34.817 50.6694 34.893 50.4317 34.9691C50.0972 35.1292 49.8815 35.2892 49.6658 35.4491C49.176 35.753 48.6862 36.0569 48.1141 36.3378C47.9975 36.3598 47.9632 36.4049 47.9289 36.45C45.3626 37.9584 42.8038 39.4797 40.2269 40.9698C38.8998 41.7372 37.5876 42.5581 36.1859 43.1631C33.3767 44.3756 30.5078 44.6274 28.0118 42.5081C24.8661 39.8372 24.9828 35.666 27.8117 33.4498C27.869 33.4582 27.9434 33.4474 27.9809 33.4795C30.0338 35.2371 32.0903 34.774 34.1882 33.5436C36.0706 32.4395 37.9894 31.3974 40.0136 30.3243C40.2405 30.2225 40.3459 30.1242 40.4512 30.0259C40.6823 29.889 40.9133 29.7521 41.263 29.6139C41.4853 29.5138 41.589 29.4149 41.6927 29.3161C42.2208 29.0038 42.7488 28.6914 43.4025 28.3767C43.7437 28.2134 43.9593 28.0524 44.1749 27.8915C44.1749 27.8915 44.2248 27.8442 44.3234 27.8442C44.6356 27.6862 44.8491 27.5284 45.0627 27.3705C45.262 27.1931 45.4613 27.0157 45.7745 26.8083C45.9578 26.6468 46.0274 26.5153 46.0969 26.3838C46.0969 26.3838 46.1057 26.3168 46.1895 26.2783C46.4597 25.7004 46.7939 25.1645 46.8069 24.621C46.8654 22.1816 46.8708 19.7391 46.8015 17.3003C46.7871 16.7939 46.3737 16.2987 46.1441 15.7983C46.1441 15.7983 46.1003 15.753 46.102 15.6541C45.8607 15.3474 45.6176 15.1394 45.3745 14.9315C45.1795 14.8149 44.9845 14.6983 44.7352 14.4859C44.5488 14.338 44.4167 14.2858 44.2846 14.2337C44.0403 14.1156 43.7961 13.9976 43.4961 13.7827C43.3082 13.6318 43.176 13.5778 43.0439 13.5237C42.9148 13.4662 42.7857 13.4086 42.6051 13.2556C42.4181 13.1054 42.2827 13.0507 42.1473 12.9961C42.0207 12.9412 41.894 12.8864 41.7186 12.735C41.4194 12.5196 41.1689 12.4007 40.9184 12.2818C40.7887 12.2261 40.659 12.1704 40.4774 12.0189C40.2878 11.8679 40.1501 11.8127 40.0124 11.7575C39.6571 11.5735 39.3018 11.3895 38.8876 11.1105C38.5431 10.949 38.2574 10.8826 37.9717 10.8161C37.662 10.8213 37.3523 10.8264 36.9325 10.7783C36.6694 10.7966 36.5163 10.8682 36.3632 10.9398Z" fill="#9EC544"/>
<path d="M27.7448 15.2377C27.6829 12.074 27.6863 8.92703 27.6737 5.78011C27.6721 5.38083 27.5872 4.98188 27.6021 4.55826C27.7086 4.50167 27.7569 4.49653 27.8342 4.6071C27.9113 4.85309 27.9624 5.01029 28.0224 5.24956C28.0271 8.52357 28.0226 11.7155 27.9757 14.9479C27.9301 15.0642 27.9271 15.1401 27.924 15.216C27.8844 15.2288 27.8447 15.2416 27.7448 15.2377Z" fill="#62206F"/>
<path d="M46.1483 15.8672C46.3736 16.2986 46.7871 16.7938 46.8015 17.3002C46.8708 19.739 46.8654 22.1816 46.8069 24.6209C46.7939 25.1644 46.4597 25.7003 46.2116 26.2527C46.2786 25.3408 46.4894 24.4186 46.5189 23.4907C46.5778 21.6327 46.5705 19.7706 46.5203 17.9121C46.5025 17.2506 46.281 16.5947 46.1483 15.8672Z" fill="#A9CC56"/>
<path d="M55.9408 11.6689C55.7325 11.3291 55.5493 10.9307 55.3741 10.4622C55.5768 10.7982 55.7714 11.2043 55.9408 11.6689Z" fill="#A9CC56"/>
<path d="M29.9255 3.7654C29.6486 3.9873 29.3097 4.20822 28.9011 4.42039C29.1754 4.19589 29.5195 3.98016 29.9255 3.7654Z" fill="#A9CC56"/>
<path d="M31.1657 3.04758C30.8994 3.27265 30.5711 3.49934 30.1754 3.72136C30.44 3.4942 30.7718 3.27171 31.1657 3.04758Z" fill="#A9CC56"/>
<path d="M45.3945 14.9868C45.6176 15.1394 45.8607 15.3473 46.0979 15.6228C45.8662 15.4743 45.6404 15.2582 45.3945 14.9868Z" fill="#A9CC56"/>
<path d="M55.619 31.2923C55.6528 31.0121 55.74 30.6986 55.8775 30.3603C55.8427 30.6434 55.7576 30.9512 55.619 31.2923Z" fill="#A9CC56"/>
<path d="M36.6695 0.086937C36.4445 0.243298 36.1589 0.383567 35.8043 0.513172C36.0265 0.358619 36.3177 0.214733 36.6695 0.086937Z" fill="#A9CC56"/>
<path d="M38.0105 10.8614C38.2575 10.8825 38.5431 10.9489 38.8431 11.0682C38.588 11.0496 38.3186 10.9782 38.0105 10.8614Z" fill="#A9CC56"/>
<path d="M51.8546 34.2133C52.016 34.0523 52.2374 33.892 52.5265 33.7404C52.3676 33.904 52.1411 34.059 51.8546 34.2133Z" fill="#A9CC56"/>
<path d="M44.2179 3.47803C43.9917 3.4126 43.7367 3.29444 43.4711 3.11547C43.7033 3.17821 43.9462 3.30174 44.2179 3.47803Z" fill="#A9CC56"/>
<path d="M45.0036 27.3694C44.8491 27.5283 44.6356 27.6861 44.3573 27.8386C44.5099 27.6783 44.7271 27.5233 45.0036 27.3694Z" fill="#A9CC56"/>
<path d="M45.4554 4.18931C45.2301 4.1233 44.9764 4.00451 44.7122 3.82515C44.9434 3.88856 45.1853 4.01255 45.4554 4.18931Z" fill="#A9CC56"/>
<path d="M44.1153 27.8906C43.9593 28.0524 43.7437 28.2134 43.4622 28.3677C43.616 28.204 43.8358 28.0469 44.1153 27.8906Z" fill="#A9CC56"/>
<path d="M50.9668 34.7418C51.1208 34.5802 51.3343 34.4195 51.6129 34.2643C51.4608 34.4275 51.2436 34.585 50.9668 34.7418Z" fill="#A9CC56"/>
<path d="M30.5743 14.1777C30.7305 14.0147 30.9466 13.8523 31.2289 13.6963C31.0748 13.8612 30.8545 14.0197 30.5743 14.1777Z" fill="#A9CC56"/>
<path d="M49.7253 35.4489C49.8815 35.289 50.0972 35.1291 50.3785 34.9755C50.2245 35.1376 50.0047 35.2932 49.7253 35.4489Z" fill="#A9CC56"/>
<path d="M47.5901 5.42777C47.364 5.36177 47.1067 5.24416 46.837 5.06545C47.0694 5.12829 47.3141 5.25222 47.5901 5.42777Z" fill="#A9CC56"/>
<path d="M31.8143 13.4574C31.9722 13.2967 32.1896 13.1388 32.4729 12.9875C32.3172 13.1495 32.0955 13.3048 31.8143 13.4574Z" fill="#A9CC56"/>
<path d="M40.9447 12.3349C41.1689 12.4006 41.4194 12.5195 41.6809 12.6982C41.4516 12.6347 41.2113 12.5114 40.9447 12.3349Z" fill="#A9CC56"/>
<path d="M42.0813 2.24072C41.8577 2.1749 41.6059 2.05664 41.343 1.87846C41.5723 1.94178 41.8127 2.06503 42.0813 2.24072Z" fill="#A9CC56"/>
<path d="M53.4383 8.79914C53.2135 8.73513 52.9588 8.61917 52.6926 8.44328C52.9236 8.50463 53.1659 8.62591 53.4383 8.79914Z" fill="#A9CC56"/>
<path d="M55.0724 32.1555C55.1331 31.9816 55.2497 31.7891 55.4265 31.5878C55.3672 31.765 55.2477 31.9508 55.0724 32.1555Z" fill="#A9CC56"/>
<path d="M36.42 10.9545C36.5165 10.8683 36.6699 10.7966 36.8571 10.7646C36.7529 10.8591 36.615 10.914 36.42 10.9545Z" fill="#A9CC56"/>
<path d="M38.5595 0.27573C38.3968 0.288848 38.1993 0.251181 37.9807 0.155212C38.148 0.139589 38.3363 0.182266 38.5595 0.27573Z" fill="#A9CC56"/>
<path d="M52.201 8.09259C52.0914 8.08698 51.9554 8.0317 51.8065 7.91821C51.9207 7.92097 52.0476 7.98194 52.201 8.09259Z" fill="#A9CC56"/>
<path d="M35.4324 0.59642C35.3809 0.694282 35.2741 0.789181 35.106 0.876181C35.1554 0.776672 35.2663 0.685064 35.4324 0.59642Z" fill="#A9CC56"/>
<path d="M53.6295 33.1749C53.6808 33.07 53.7906 32.9617 53.9674 32.8652C53.919 32.9752 53.8035 33.0733 53.6295 33.1749Z" fill="#A9CC56"/>
<path d="M54.3319 32.7918C54.3749 32.6894 54.4732 32.5879 54.6316 32.4909C54.5903 32.5945 54.4887 32.6936 54.3319 32.7918Z" fill="#A9CC56"/>
<path d="M34.1913 1.30264C34.142 1.40131 34.0378 1.49809 33.8726 1.58782C33.9198 1.48743 34.0281 1.39409 34.1913 1.30264Z" fill="#A9CC56"/>
<path d="M40.8589 1.52859C40.7488 1.52553 40.6104 1.47411 40.4579 1.36481C40.5727 1.3647 40.7017 1.42246 40.8589 1.52859Z" fill="#A9CC56"/>
<path d="M40.3963 30.0244C40.3465 30.1243 40.2409 30.2228 40.0731 30.3137C40.1208 30.2117 40.2307 30.1173 40.3963 30.0244Z" fill="#A9CC56"/>
<path d="M41.638 29.3145C41.5896 29.4151 41.4857 29.5142 41.3201 29.606C41.3664 29.5035 41.4744 29.4082 41.638 29.3145Z" fill="#A9CC56"/>
<path d="M32.9501 2.01476C32.9001 2.11296 32.7952 2.20854 32.6293 2.29682C32.6773 2.19706 32.7862 2.1046 32.9501 2.01476Z" fill="#A9CC56"/>
<path d="M42.9843 2.76967C42.873 2.76541 42.7357 2.71065 42.5854 2.59732C42.701 2.59889 42.8296 2.65902 42.9843 2.76967Z" fill="#A9CC56"/>
<path d="M46.0466 26.4072C46.0278 26.5155 45.9581 26.6473 45.8267 26.7863C45.8418 26.6727 45.9188 26.5517 46.0466 26.4072Z" fill="#A9CC56"/>
<path d="M31.7089 2.72288C31.6613 2.82327 31.5586 2.91934 31.3956 3.00877C31.4415 2.90761 31.5477 2.81308 31.7089 2.72288Z" fill="#A9CC56"/>
<path d="M46.3496 4.72184C46.2389 4.71394 46.1024 4.65543 45.9542 4.53726C46.0696 4.54215 46.1968 4.60669 46.3496 4.72184Z" fill="#A9CC56"/>
<path d="M28.6173 15.2181C28.6761 15.118 28.7908 15.0297 28.9678 14.9546C28.9111 15.0551 28.7922 15.1425 28.6173 15.2181Z" fill="#A9CC56"/>
<path d="M29.6819 14.6966C29.729 14.5954 29.8316 14.4975 29.995 14.4063C29.9497 14.5086 29.8435 14.6042 29.6819 14.6966Z" fill="#A9CC56"/>
<path d="M44.3086 14.2834C44.4169 14.2857 44.5493 14.338 44.6957 14.4457C44.584 14.4452 44.4583 14.3893 44.3086 14.2834Z" fill="#A9CC56"/>
<path d="M43.0685 13.5732C43.1763 13.5777 43.3087 13.6318 43.4545 13.742C43.343 13.7397 43.2181 13.6812 43.0685 13.5732Z" fill="#A9CC56"/>
<path d="M42.1735 13.0455C42.283 13.0506 42.4187 13.1054 42.5674 13.2181C42.4536 13.2157 42.3266 13.1554 42.1735 13.0455Z" fill="#A9CC56"/>
<path d="M49.7281 6.66891C49.6166 6.66187 49.4767 6.60562 49.3243 6.48898C49.4412 6.49229 49.5704 6.55599 49.7281 6.66891Z" fill="#A9CC56"/>
<path d="M33.0529 12.7567C33.1014 12.6557 33.2059 12.5538 33.3733 12.4593C33.3271 12.5631 33.2179 12.6595 33.0529 12.7567Z" fill="#A9CC56"/>
<path d="M50.9622 7.38183C50.8519 7.37546 50.7148 7.31942 50.5652 7.20437C50.6802 7.20763 50.8078 7.26988 50.9622 7.38183Z" fill="#A9CC56"/>
<path d="M40.0389 11.8076C40.1503 11.8126 40.2882 11.8679 40.439 11.9824C40.323 11.9803 40.1943 11.9191 40.0389 11.8076Z" fill="#A9CC56"/>
<path d="M34.2941 12.0438C34.3441 11.9421 34.4505 11.8426 34.6196 11.7513C34.5717 11.855 34.461 11.9505 34.2941 12.0438Z" fill="#A9CC56"/>
<path d="M54.3382 9.3296C54.2263 9.32667 54.0877 9.27364 53.9353 9.16215C54.0515 9.16228 54.1814 9.22089 54.3382 9.3296Z" fill="#A9CC56"/>
<path d="M28.0133 5.1675C27.9623 5.01029 27.9113 4.85309 27.8646 4.63014C27.8974 4.55367 27.9258 4.54294 27.9986 4.54371C28.0508 4.59868 28.0586 4.64217 28.0696 4.80692C28.0529 5.00795 28.0331 5.08773 28.0133 5.1675Z" fill="#714A64"/>
<path d="M27.951 15.2182C27.9269 15.1403 27.93 15.0642 27.9969 14.9911C28.0723 15.0242 28.0838 15.0544 28.0953 15.0845C28.0953 15.0845 28.0528 15.1342 28.0394 15.1641C28.0259 15.1939 27.9782 15.22 27.951 15.2182Z" fill="#714A64"/>
<path d="M39.3542 0.685634C39.3354 0.714659 39.2859 0.716021 39.24 0.677146C39.2436 0.636912 39.3236 0.657969 39.3542 0.685634Z" fill="#A9CC56"/>
<path d="M47.9695 36.4406C47.9632 36.405 47.9976 36.3598 48.0529 36.3459C48.0738 36.3771 48.0101 36.431 47.9695 36.4406Z" fill="#A9CC56"/>
<path d="M28.1463 15.0424C28.0837 15.0543 28.0722 15.0243 28.0395 14.9508C28.0227 11.7155 28.0271 8.52359 28.0225 5.24958C28.0332 5.08774 28.053 5.00797 28.0919 4.86942C28.2033 5.02874 28.3748 5.24638 28.3761 5.46503C28.3938 8.42634 28.3919 11.3878 28.3797 14.3492C28.3788 14.5665 28.2609 14.7833 28.1463 15.0424Z" fill="#A9CC56"/>
</svg>
