<svg width="74" height="58" viewBox="0 0 74 58" fill="none" xmlns="http://www.w3.org/2000/svg">
<path fill-rule="evenodd" clip-rule="evenodd" d="M28.3536 35.5312L14.1768 21.338L8.81117 18.887L0 21.338L21.2652 42.6279L28.3536 35.5312Z" fill="#46B5FF"/>
<path fill-rule="evenodd" clip-rule="evenodd" d="M15.3964 21.338C22.4848 28.4346 29.5732 35.5312 36.6616 42.6279L57.9268 21.338L47.2559 17.9454L43.75 21.338L36.6616 28.4346L29.5732 21.338L24.6609 18.9813L15.3964 21.338Z" fill="#46B5FF"/>
<path fill-rule="evenodd" clip-rule="evenodd" d="M15.3964 21.338H29.5732L36.6616 14.2413L43.75 21.338H57.9268C50.8384 14.2413 43.75 7.14469 36.6616 0.0480595L15.3964 21.338Z" fill="#0085DE"/>
<path fill-rule="evenodd" clip-rule="evenodd" d="M28.3536 7.14469L21.2652 0.0480595L0 21.338H14.1768L28.3536 7.14469Z" fill="#0085DE"/>
<path fill-rule="evenodd" clip-rule="evenodd" d="M44.8612 7.18919L59.1429 21.4127L64.5317 23.853L73.3446 21.3344L51.9247 0L44.8612 7.18919Z" fill="#0085DE"/>
<path fill-rule="evenodd" clip-rule="evenodd" d="M45.2808 35.3693L52.2927 42.3893L73.3588 21.3575L59.3242 21.3469L45.2808 35.3693Z" fill="#46B5FF"/>
<path fill-rule="evenodd" clip-rule="evenodd" d="M37.323 43.3114L44.415 50.2264L65.4579 29.2463L51.3522 29.3228L37.323 43.3114Z" fill="#46B5FF"/>
<path d="M28.9621 36.034L21.8744 43.1299L28.9621 50.2259L36.0499 43.1299L28.9621 36.034Z" fill="#46B5FF"/>
<path d="M36.6587 43.808L29.5709 50.904L36.6587 58L43.7464 50.904L36.6587 43.808Z" fill="#46B5FF"/>
</svg>
