<svg width="129" height="101" viewBox="0 0 129 101" fill="none" xmlns="http://www.w3.org/2000/svg">
<path fill-rule="evenodd" clip-rule="evenodd" d="M50.0409 61.7061L25.4205 37.0571L16.1021 32.8005L0.800049 37.0571L37.7307 74.0306L50.0409 61.7061Z" fill="white"/>
<path fill-rule="evenodd" clip-rule="evenodd" d="M27.5382 37.0569C39.8484 49.3814 52.1586 61.7059 64.4688 74.0304L101.399 37.0569L82.8678 31.1652L76.7791 37.0569L64.4688 49.3814L52.1586 37.0569L43.6276 32.9642L27.5382 37.0569Z" fill="white"/>
<path fill-rule="evenodd" clip-rule="evenodd" d="M27.5382 37.057H52.1586L64.4688 24.7325L76.7791 37.057H101.399C89.0893 24.7325 76.7791 12.408 64.4688 0.0834961L27.5382 37.057Z" fill="#EAEAEA"/>
<path fill-rule="evenodd" clip-rule="evenodd" d="M50.0409 12.408L37.7307 0.0834961L0.800049 37.057H25.4205L50.0409 12.408Z" fill="#EAEAEA"/>
<path fill-rule="evenodd" clip-rule="evenodd" d="M78.7092 12.4852L103.512 37.1868L112.87 41.4248L128.175 37.0508L90.9762 0L78.7092 12.4852Z" fill="#EAEAEA"/>
<path fill-rule="evenodd" clip-rule="evenodd" d="M79.4373 61.4247L91.6147 73.6163L128.2 37.0911L103.826 37.0725L79.4373 61.4247Z" fill="white"/>
<path fill-rule="evenodd" clip-rule="evenodd" d="M65.6178 75.2176L77.9342 87.2268L114.479 50.7911L89.982 50.9241L65.6178 75.2176Z" fill="white"/>
<path d="M51.0979 62.579L38.7888 74.9023L51.0979 87.2257L63.407 74.9023L51.0979 62.579Z" fill="white"/>
<path d="M64.4641 76.0802L52.155 88.4036L64.4641 100.727L76.7732 88.4036L64.4641 76.0802Z" fill="white"/>
</svg>
